# xmcd
#
# Track frame offsets:
#	150
#	28410
#	56670
#	79280
#	100140
#	122190
#	145697
#	161295
#	185432
#	205120
#	231805
#	254867
#
# Disc length: 3740 seconds
#
# Revision: 1007291712
# Processed by: cddbd v1.5.2PL0 Copyright (c) Steve Scherf et al.
# Submitted via: EZCDAudioConverter 8.0.2.1
#
DISCID=aa0e9a0c
DTITLE=Lệ Thu, Sĩ Phú, Thanh Hoàng - Bài Tình Ca Mùa Đông
DYEAR=1988
DGENRE=Indie - Alternative
TTITLE0=Sĩ Phú - Đàn trong đêm vắng
TTITLE1=Lệ Thu - Mười năm tình cũ
TTITLE2=Thanh Hoàng - Hoài cảm
TTITLE3=Lệ Thu - Nếu đừng dang dở
TTITLE4=Sĩ Phú - Nỗi lòng người đi
TTITLE5=Lệ Thu - Sầu lẻ bóng
TTITLE6=Lệ Thu - Bài Tình Ca Mùa Đông
TTITLE7=Thanh Hoàng - Tình phụ
TTITLE8=Lệ Thu - Xóm đêm
TTITLE9=Sĩ Phú - Chiều thu ấy
TTITLE10=Lệ Thu - Đò chiều
TTITLE11=Thanh Hoàng - Mười năm tình cũ
EXTD=
EXTT0=
EXTT1=
EXTT2=
EXTT3=
EXTT4=
EXTT5=
EXTT6=
EXTT7=
EXTT8=
EXTT9=
EXTT10=
EXTT11=
PLAYORDER=
